<svg width="23" height="23" viewBox="0 0 23 23" fill="none" xmlns="http://www.w3.org/2000/svg">
<path fill-rule="evenodd" clip-rule="evenodd" d="M17.0381 14.8314L23 20.7933L20.7933 23L14.8314 17.0381C10.8539 19.8682 5.37127 19.178 2.21936 15.4504C-0.932547 11.7227 -0.701937 6.20163 2.74985 2.74985C6.20163 -0.701937 11.7227 -0.932547 15.4504 2.21936C19.178 5.37127 19.8682 10.8539 17.0381 14.8314ZM9.41814 2.14062C5.3978 2.14062 2.13867 5.39975 2.13867 9.42009C2.14326 13.4385 5.3997 16.695 9.41814 16.6996C13.4385 16.6996 16.6976 13.4404 16.6976 9.42009C16.6976 5.39975 13.4385 2.14062 9.41814 2.14062Z" fill="#111111"/>
</svg>
