<svg width="313" height="37" viewBox="0 0 313 37" fill="none" xmlns="http://www.w3.org/2000/svg">
<g clip-path="url(#clip0_47_3197)">
<path d="M9.9375 20.9609C9.9375 21.9766 9.53906 22.763 8.74219 23.3203C7.95052 23.8776 6.83333 24.1562 5.39062 24.1562C2.70833 24.1562 1.15365 23.224 0.726562 21.3594L2.17188 21.0703C2.33854 21.7318 2.69271 22.2188 3.23438 22.5312C3.77604 22.8385 4.51302 22.9922 5.44531 22.9922C6.40885 22.9922 7.15104 22.8281 7.67188 22.5C8.19792 22.1667 8.46094 21.6797 8.46094 21.0391C8.46094 20.6797 8.3776 20.388 8.21094 20.1641C8.04948 19.9401 7.82031 19.7552 7.52344 19.6094C7.22656 19.4635 6.8724 19.3411 6.46094 19.2422C6.04948 19.1432 5.59375 19.0365 5.09375 18.9219C4.22396 18.7292 3.5625 18.5365 3.10938 18.3438C2.66146 18.151 2.30729 17.9375 2.04688 17.7031C1.78646 17.4635 1.58594 17.1849 1.44531 16.8672C1.3099 16.5495 1.24219 16.1849 1.24219 15.7734C1.24219 14.8307 1.60156 14.1042 2.32031 13.5938C3.04427 13.0833 4.07812 12.8281 5.42188 12.8281C6.67188 12.8281 7.6276 13.0208 8.28906 13.4062C8.95052 13.7865 9.41406 14.4375 9.67969 15.3594L8.21094 15.6172C8.04948 15.0339 7.74219 14.612 7.28906 14.3516C6.83594 14.0859 6.20833 13.9531 5.40625 13.9531C4.52604 13.9531 3.85417 14.099 3.39062 14.3906C2.92708 14.6823 2.69531 15.1172 2.69531 15.6953C2.69531 16.0339 2.78385 16.3151 2.96094 16.5391C3.14323 16.7578 3.40365 16.9453 3.74219 17.1016C4.08073 17.2526 4.75521 17.4401 5.76562 17.6641C6.10417 17.7422 6.4401 17.8229 6.77344 17.9062C7.11198 17.9844 7.4349 18.0807 7.74219 18.1953C8.04948 18.3047 8.33594 18.4349 8.60156 18.5859C8.8724 18.737 9.10677 18.9219 9.30469 19.1406C9.5026 19.3594 9.65625 19.6172 9.76562 19.9141C9.88021 20.2109 9.9375 20.5599 9.9375 20.9609ZM13.1484 16.9922C13.4505 16.4401 13.8125 16.0365 14.2344 15.7812C14.6615 15.5208 15.2005 15.3906 15.8516 15.3906C16.7682 15.3906 17.4427 15.6198 17.875 16.0781C18.3125 16.5312 18.5312 17.2943 18.5312 18.3672V24H17.1172V18.6406C17.1172 18.0469 17.0625 17.6068 16.9531 17.3203C16.8438 17.0286 16.6641 16.8151 16.4141 16.6797C16.1641 16.5443 15.8177 16.4766 15.375 16.4766C14.7135 16.4766 14.1823 16.7057 13.7812 17.1641C13.3854 17.6224 13.1875 18.2396 13.1875 19.0156V24H11.7812V12.4062H13.1875V15.4219C13.1875 15.7396 13.1771 16.0677 13.1562 16.4062C13.1406 16.7448 13.1302 16.9401 13.125 16.9922H13.1484ZM22.8125 24.1562C21.9635 24.1562 21.3255 23.9323 20.8984 23.4844C20.4714 23.0365 20.2578 22.4219 20.2578 21.6406C20.2578 20.7656 20.5443 20.0938 21.1172 19.625C21.6953 19.1562 22.625 18.9062 23.9062 18.875L25.8047 18.8438V18.3828C25.8047 17.6953 25.6589 17.2031 25.3672 16.9062C25.0755 16.6094 24.6172 16.4609 23.9922 16.4609C23.362 16.4609 22.9036 16.5677 22.6172 16.7812C22.3307 16.9948 22.1589 17.3359 22.1016 17.8047L20.6328 17.6719C20.8724 16.151 22.0026 15.3906 24.0234 15.3906C25.0859 15.3906 25.8854 15.6354 26.4219 16.125C26.9583 16.6094 27.2266 17.3125 27.2266 18.2344V21.875C27.2266 22.2917 27.2812 22.6068 27.3906 22.8203C27.5 23.0286 27.7083 23.1328 28.0156 23.1328C28.151 23.1328 28.3047 23.1146 28.4766 23.0781V23.9531C28.1224 24.0365 27.7604 24.0781 27.3906 24.0781C26.8698 24.0781 26.4896 23.9427 26.25 23.6719C26.0156 23.3958 25.8828 22.9661 25.8516 22.3828H25.8047C25.4453 23.0286 25.026 23.487 24.5469 23.7578C24.0729 24.0234 23.4948 24.1562 22.8125 24.1562ZM23.1328 23.1016C23.6484 23.1016 24.1068 22.9844 24.5078 22.75C24.9089 22.5156 25.224 22.1953 25.4531 21.7891C25.6875 21.3776 25.8047 20.9557 25.8047 20.5234V19.8281L24.2656 19.8594C23.6042 19.8698 23.1016 19.9375 22.7578 20.0625C22.4193 20.1875 22.1589 20.3802 21.9766 20.6406C21.7943 20.901 21.7031 21.2422 21.7031 21.6641C21.7031 22.1224 21.8255 22.4766 22.0703 22.7266C22.3203 22.9766 22.6745 23.1016 23.1328 23.1016ZM29.5938 24V17.5156C29.5938 16.9219 29.5781 16.2656 29.5469 15.5469H30.875C30.9167 16.5052 30.9375 17.0807 30.9375 17.2734H30.9688C31.1927 16.5495 31.4505 16.0547 31.7422 15.7891C32.0339 15.5234 32.4453 15.3906 32.9766 15.3906C33.1641 15.3906 33.3542 15.4167 33.5469 15.4688V16.7578C33.3594 16.7057 33.1094 16.6797 32.7969 16.6797C32.2135 16.6797 31.7682 16.9323 31.4609 17.4375C31.1536 17.9375 31 18.6562 31 19.5938V24H29.5938ZM35.9688 20.0703C35.9688 21.0391 36.1693 21.7865 36.5703 22.3125C36.9714 22.8385 37.5573 23.1016 38.3281 23.1016C38.9375 23.1016 39.4245 22.9792 39.7891 22.7344C40.1589 22.4896 40.4089 22.1797 40.5391 21.8047L41.7734 22.1562C41.2682 23.4896 40.1198 24.1562 38.3281 24.1562C37.0781 24.1562 36.125 23.7839 35.4688 23.0391C34.8177 22.2943 34.4922 21.1875 34.4922 19.7188C34.4922 18.3229 34.8177 17.2526 35.4688 16.5078C36.125 15.763 37.0599 15.3906 38.2734 15.3906C40.7578 15.3906 42 16.888 42 19.8828V20.0703H35.9688ZM40.5469 18.9922C40.4688 18.1016 40.2422 17.4531 39.8672 17.0469C39.4922 16.6354 38.9531 16.4297 38.25 16.4297C37.5677 16.4297 37.026 16.6589 36.625 17.1172C36.2292 17.5703 36.0156 18.1953 35.9844 18.9922H40.5469ZM56.3438 24H54.7109L53.2344 18.0234L52.9531 16.7031C52.9062 16.9375 52.8333 17.276 52.7344 17.7188C52.6354 18.1562 52.1042 20.25 51.1406 24H49.5156L47.1484 15.5469H48.5391L49.9688 21.2891C50.0052 21.4141 50.1172 21.9297 50.3047 22.8359L50.4375 22.2578L52.2031 15.5469H53.7109L55.1875 21.3516L55.5469 22.8359L55.7891 21.75L57.3906 15.5469H58.7656L56.3438 24ZM59.8047 13.75V12.4062H61.2109V13.75H59.8047ZM59.8047 24V15.5469H61.2109V24H59.8047ZM66.625 23.9375C66.1615 24.0625 65.6875 24.125 65.2031 24.125C64.0781 24.125 63.5156 23.487 63.5156 22.2109V16.5703H62.5391V15.5469H63.5703L63.9844 13.6562H64.9219V15.5469H66.4844V16.5703H64.9219V21.9062C64.9219 22.3125 64.987 22.599 65.1172 22.7656C65.2526 22.9271 65.4844 23.0078 65.8125 23.0078C66 23.0078 66.2708 22.9714 66.625 22.8984V23.9375ZM69.2266 16.9922C69.5286 16.4401 69.8906 16.0365 70.3125 15.7812C70.7396 15.5208 71.2786 15.3906 71.9297 15.3906C72.8464 15.3906 73.5208 15.6198 73.9531 16.0781C74.3906 16.5312 74.6094 17.2943 74.6094 18.3672V24H73.1953V18.6406C73.1953 18.0469 73.1406 17.6068 73.0312 17.3203C72.9219 17.0286 72.7422 16.8151 72.4922 16.6797C72.2422 16.5443 71.8958 16.4766 71.4531 16.4766C70.7917 16.4766 70.2604 16.7057 69.8594 17.1641C69.4635 17.6224 69.2656 18.2396 69.2656 19.0156V24H67.8594V12.4062H69.2656V15.4219C69.2656 15.7396 69.2552 16.0677 69.2344 16.4062C69.2188 16.7448 69.2083 16.9401 69.2031 16.9922H69.2266Z" fill="#535353"/>
<circle cx="123.5" cy="18.5" r="18.5" fill="#272EAE"/>
<path d="M121.696 29V20.0547H118.5V16.5H121.696V13.6992C121.696 10.6562 123.679 9 126.575 9C127.962 9 129.154 9.09766 129.5 9.14062V12.3203H127.492C125.917 12.3203 125.613 13.0234 125.613 14.0508V16.5H129.167L128.679 20.0547H125.613V29" fill="white"/>
<mask id="mask0_47_3197" style="mask-type:luminance" maskUnits="userSpaceOnUse" x="118" y="9" width="12" height="20">
<path d="M121.696 29V20.0547H118.5V16.5H121.696V13.6992C121.696 10.6562 123.679 9 126.575 9C127.962 9 129.154 9.09766 129.5 9.14062V12.3203H127.492C125.917 12.3203 125.613 13.0234 125.613 14.0508V16.5H129.167L128.679 20.0547H125.613V29" fill="white"/>
</mask>
<g mask="url(#mask0_47_3197)">
</g>
<circle cx="180.5" cy="18.5" r="18.5" fill="#1590D8"/>
<path d="M188.944 14.9264C188.957 15.104 188.957 15.2817 188.957 15.4594C188.957 20.8781 184.833 27.1218 177.294 27.1218C174.972 27.1218 172.815 26.4492 171 25.2817C171.33 25.3198 171.647 25.3325 171.99 25.3325C173.906 25.3325 175.67 24.6853 177.079 23.5812C175.277 23.5431 173.766 22.3629 173.246 20.7386C173.5 20.7766 173.754 20.802 174.02 20.802C174.388 20.802 174.756 20.7512 175.099 20.6624C173.221 20.2817 171.812 18.632 171.812 16.6396V16.5888C172.358 16.8934 172.992 17.0838 173.665 17.1091C172.561 16.3731 171.838 15.1167 171.838 13.6954C171.838 12.934 172.041 12.236 172.396 11.6269C174.414 14.1142 177.447 15.7385 180.848 15.9162C180.784 15.6117 180.746 15.2944 180.746 14.9772C180.746 12.7183 182.574 10.8782 184.845 10.8782C186.025 10.8782 187.091 11.3731 187.84 12.1726C188.766 11.9949 189.655 11.6523 190.442 11.1827C190.137 12.1345 189.49 12.934 188.64 13.4416C189.464 13.3528 190.264 13.1243 191 12.8071C190.442 13.6193 189.744 14.3426 188.944 14.9264Z" fill="white"/>
<mask id="mask1_47_3197" style="mask-type:luminance" maskUnits="userSpaceOnUse" x="171" y="10" width="20" height="18">
<path d="M188.944 14.9264C188.957 15.104 188.957 15.2817 188.957 15.4594C188.957 20.8781 184.833 27.1218 177.294 27.1218C174.972 27.1218 172.815 26.4492 171 25.2817C171.33 25.3198 171.647 25.3325 171.99 25.3325C173.906 25.3325 175.67 24.6853 177.079 23.5812C175.277 23.5431 173.766 22.3629 173.246 20.7386C173.5 20.7766 173.754 20.802 174.02 20.802C174.388 20.802 174.756 20.7512 175.099 20.6624C173.221 20.2817 171.812 18.632 171.812 16.6396V16.5888C172.358 16.8934 172.992 17.0838 173.665 17.1091C172.561 16.3731 171.838 15.1167 171.838 13.6954C171.838 12.934 172.041 12.236 172.396 11.6269C174.414 14.1142 177.447 15.7385 180.848 15.9162C180.784 15.6117 180.746 15.2944 180.746 14.9772C180.746 12.7183 182.574 10.8782 184.845 10.8782C186.025 10.8782 187.091 11.3731 187.84 12.1726C188.766 11.9949 189.655 11.6523 190.442 11.1827C190.137 12.1345 189.49 12.934 188.64 13.4416C189.464 13.3528 190.264 13.1243 191 12.8071C190.442 13.6193 189.744 14.3426 188.944 14.9264Z" fill="white"/>
</mask>
<g mask="url(#mask1_47_3197)">
</g>
<circle cx="237.5" cy="18.5" r="18.5" fill="#D0021B"/>
<path fill-rule="evenodd" clip-rule="evenodd" d="M244.409 12.6538C245.225 12.876 245.867 13.5308 246.085 14.3623C246.482 15.8693 246.482 19.0136 246.482 19.0136C246.482 19.0136 246.482 22.1579 246.085 23.665C245.867 24.4964 245.225 25.124 244.409 25.3462C242.93 25.75 237 25.75 237 25.75C237 25.75 231.07 25.75 229.591 25.3462C228.775 25.124 228.133 24.4964 227.915 23.665C227.519 22.1579 227.519 19.0136 227.519 19.0136C227.519 19.0136 227.519 15.8693 227.915 14.3623C228.133 13.5308 228.775 12.8761 229.591 12.6538C231.07 12.25 237 12.25 237 12.25C237 12.25 242.93 12.25 244.409 12.6538ZM235.061 16.1588V21.8684L240.017 19.0137L235.061 16.1588Z" fill="white"/>
<mask id="mask2_47_3197" style="mask-type:luminance" maskUnits="userSpaceOnUse" x="227" y="12" width="20" height="14">
<path fill-rule="evenodd" clip-rule="evenodd" d="M244.409 12.6538C245.225 12.876 245.867 13.5308 246.085 14.3623C246.482 15.8693 246.482 19.0136 246.482 19.0136C246.482 19.0136 246.482 22.1579 246.085 23.665C245.867 24.4964 245.225 25.124 244.409 25.3462C242.93 25.75 237 25.75 237 25.75C237 25.75 231.07 25.75 229.591 25.3462C228.775 25.124 228.133 24.4964 227.915 23.665C227.519 22.1579 227.519 19.0136 227.519 19.0136C227.519 19.0136 227.519 15.8693 227.915 14.3623C228.133 13.5308 228.775 12.8761 229.591 12.6538C231.07 12.25 237 12.25 237 12.25C237 12.25 242.93 12.25 244.409 12.6538ZM235.061 16.1588V21.8684L240.017 19.0137L235.061 16.1588Z" fill="white"/>
</mask>
<g mask="url(#mask2_47_3197)">
</g>
<circle cx="294.5" cy="18.5" r="18.5" fill="#F53E6A"/>
<path fill-rule="evenodd" clip-rule="evenodd" d="M295 8.3125C289.658 8.3125 285.312 12.6583 285.312 18C285.312 23.3417 289.658 27.6875 295 27.6875C300.342 27.6875 304.688 23.3417 304.688 18C304.688 12.6583 300.342 8.3125 295 8.3125ZM301.405 12.7799C302.558 14.188 303.255 15.9814 303.274 17.9344C303.001 17.8767 300.265 17.3218 297.512 17.6681C297.287 17.1196 297.075 16.6371 296.785 16.0425C299.844 14.7934 301.231 13.0159 301.405 12.7799ZM296.148 14.8121C299.091 13.7092 300.336 12.035 300.485 11.823C298.45 10.0176 295.685 9.33547 293.061 9.96801C293.29 10.2743 294.792 12.3208 296.148 14.8121ZM291.482 10.5242C291.7 10.8234 293.179 12.8725 294.55 15.3097C290.679 16.3376 287.27 16.3228 286.9 16.3179C287.437 13.7502 289.167 11.6161 291.482 10.5242ZM286.73 17.7598C286.727 17.8438 286.725 17.928 286.725 18.0126C286.725 20.1379 287.531 22.0783 288.853 23.5453C290.194 21.2492 292.912 18.8292 295.905 17.9864C295.697 17.5164 295.471 17.0458 295.234 16.5822C291.101 17.8189 287.092 17.7672 286.73 17.7598ZM289.921 24.5405C290.785 22.7736 293.131 20.4927 296.467 19.3547C297.629 22.3736 298.109 24.9036 298.232 25.6296C295.572 26.7629 292.372 26.452 289.921 24.5405ZM298.016 18.9723C299.098 21.9464 299.539 24.3687 299.623 24.8721C301.48 23.6168 302.801 21.6284 303.17 19.3261C302.887 19.2367 300.609 18.5573 298.016 18.9723Z" fill="white"/>
<mask id="mask3_47_3197" style="mask-type:luminance" maskUnits="userSpaceOnUse" x="285" y="8" width="20" height="20">
<path fill-rule="evenodd" clip-rule="evenodd" d="M295 8.3125C289.658 8.3125 285.312 12.6583 285.312 18C285.312 23.3417 289.658 27.6875 295 27.6875C300.342 27.6875 304.688 23.3417 304.688 18C304.688 12.6583 300.342 8.3125 295 8.3125ZM301.405 12.7799C302.558 14.188 303.255 15.9814 303.274 17.9344C303.001 17.8767 300.265 17.3218 297.512 17.6681C297.287 17.1196 297.075 16.6371 296.785 16.0425C299.844 14.7934 301.231 13.0159 301.405 12.7799ZM296.148 14.8121C299.091 13.7092 300.336 12.035 300.485 11.823C298.45 10.0176 295.685 9.33547 293.061 9.96801C293.29 10.2743 294.792 12.3208 296.148 14.8121ZM291.482 10.5242C291.7 10.8234 293.179 12.8725 294.55 15.3097C290.679 16.3376 287.27 16.3228 286.9 16.3179C287.437 13.7502 289.167 11.6161 291.482 10.5242ZM286.73 17.7598C286.727 17.8438 286.725 17.928 286.725 18.0126C286.725 20.1379 287.531 22.0783 288.853 23.5453C290.194 21.2492 292.912 18.8292 295.905 17.9864C295.697 17.5164 295.471 17.0458 295.234 16.5822C291.101 17.8189 287.092 17.7672 286.73 17.7598ZM289.921 24.5405C290.785 22.7736 293.131 20.4927 296.467 19.3547C297.629 22.3736 298.109 24.9036 298.232 25.6296C295.572 26.7629 292.372 26.452 289.921 24.5405ZM298.016 18.9723C299.098 21.9464 299.539 24.3687 299.623 24.8721C301.48 23.6168 302.801 21.6284 303.17 19.3261C302.887 19.2367 300.609 18.5573 298.016 18.9723Z" fill="white"/>
</mask>
<g mask="url(#mask3_47_3197)">
</g>
</g>
<defs>
<clipPath id="clip0_47_3197">
<rect width="313" height="37" fill="white"/>
</clipPath>
</defs>
</svg>
