<svg width="14" height="26" viewBox="0 0 14 26" fill="none" xmlns="http://www.w3.org/2000/svg">
<path d="M4.30479 25.2696V14.3902H0.417969V10.0669H4.30479V6.66058C4.30479 2.95967 6.71696 0.945312 10.2389 0.945312C11.9264 0.945312 13.3757 1.06408 13.7963 1.11634V4.98353H11.3538C9.43824 4.98353 9.06831 5.83868 9.06831 7.08815V10.0669H13.3909L12.798 14.3902H9.06831V25.2696" fill="white"/>
<mask id="mask0_130_54" style="mask-type:luminance" maskUnits="userSpaceOnUse" x="0" y="0" width="14" height="26">
<path d="M4.30479 25.2696V14.3902H0.417969V10.0669H4.30479V6.66058C4.30479 2.95967 6.71696 0.945312 10.2389 0.945312C11.9264 0.945312 13.3757 1.06408 13.7963 1.11634V4.98353H11.3538C9.43824 4.98353 9.06831 5.83868 9.06831 7.08815V10.0669H13.3909L12.798 14.3902H9.06831V25.2696" fill="white"/>
</mask>
<g mask="url(#mask0_130_54)">
</g>
</svg>
